<?xml version="1.0" encoding="iso-8859-1"?>
<!-- Generator: Adobe Illustrator 19.0.0, SVG Export Plug-In . SVG Version: 6.00 Build 0)  -->
<svg version="1.1" id="Capa_1" xmlns="http://www.w3.org/2000/svg" xmlns:xlink="http://www.w3.org/1999/xlink" x="0px" y="0px"
	 viewBox="0 0 512 512" style="enable-background:new 0 0 512 512;" xml:space="preserve">
<rect style="fill:#666666;" width="512" height="512"/>
<g>
	<path style="fill:#50C98A;" d="M0,284.273h194.304c8.768,0,15.876-7.107,15.876-15.876V0H0V284.273z"/>
	<path style="fill:#50C98A;" d="M0,348.531h382.376c8.768,0,15.876,7.107,15.876,15.876V512H0V348.531z"/>
</g>
<path style="fill:#A6C8E8;" d="M512,284.273H290.314c-8.768,0-15.876-7.107-15.876-15.876V74.462
	c0-8.768,7.107-15.876,15.876-15.876H512"/>
<path style="fill:#F74B68;" d="M415.56,251.36l-75.248-97.333c-29.274-37.866-25.851-91.586,7.992-125.431l0,0
	c37.144-37.144,97.367-37.144,134.512,0l0,0c33.844,33.844,37.267,87.565,7.992,125.431L415.56,251.36z"/>
<circle style="fill:#F2F2F2;" cx="415.556" cy="91.961" r="62.067"/>
<path style="fill:#DD3A5E;" d="M415.56,161.863c-38.546,0-69.906-31.359-69.906-69.906s31.359-69.906,69.906-69.906
	s69.906,31.359,69.906,69.906S454.106,161.863,415.56,161.863z M415.56,37.725c-29.904,0-54.232,24.328-54.232,54.232
	s24.328,54.232,54.232,54.232c29.904,0,54.232-24.328,54.232-54.232S445.464,37.725,415.56,37.725z"/>
<path style="fill:#428FCE;" d="M450.417,70.368c-2.227-3.711-7.039-4.916-10.752-2.69l-14.943,8.962l-16.115-8.926
	c-3.788-2.097-8.556-0.727-10.653,3.058c-2.097,3.787-0.727,8.556,3.058,10.653l8.177,4.529l-10.587,6.349l-7.587-3.914
	c-3.847-1.983-8.573-0.474-10.558,3.372c-1.984,3.846-0.474,8.573,3.372,10.558l11.468,5.915c1.13,0.582,2.361,0.871,3.592,0.871
	c1.398,0,2.793-0.374,4.031-1.116l12.763-7.655l-0.766,8.476c-0.39,4.31,2.789,8.121,7.099,8.511
	c0.24,0.022,0.479,0.032,0.715,0.032c4.009,0,7.428-3.062,7.796-7.131l1.795-19.867l15.402-9.237
	C451.439,78.893,452.643,74.079,450.417,70.368z"/>
<g>
	<path style="fill:#F2F2F2;" d="M122.066,386.145H43.659c-8.847,0-16.019,7.172-16.019,16.019v68.625
		c0,8.847,7.172,16.019,16.019,16.019h78.407c8.847,0,16.019-7.172,16.019-16.019v-68.625
		C138.085,393.317,130.913,386.145,122.066,386.145z"/>
	<path style="fill:#F2F2F2;" d="M341.484,386.145H201.953c-8.847,0-16.019,7.172-16.019,16.019v68.625
		c0,8.847,7.172,16.019,16.019,16.019h139.53c8.847,0,16.019-7.172,16.019-16.019v-68.625
		C357.503,393.317,350.331,386.145,341.484,386.145z"/>
</g>
<g>
	<circle style="fill:#38A877;" cx="54.366" cy="55.318" r="47.407"/>
	<circle style="fill:#38A877;" cx="138.083" cy="161.113" r="47.407"/>
</g>
<g>
	<path style="fill:#666666;" d="M54.367,150.53c-4.328,0-7.837-3.509-7.837-7.837V55.318c0-4.328,3.509-7.837,7.837-7.837
		s7.837,3.509,7.837,7.837v87.375C62.204,147.021,58.695,150.53,54.367,150.53z"/>
	<path style="fill:#666666;" d="M138.086,256.322c-4.328,0-7.837-3.509-7.837-7.837V161.11c0-4.328,3.509-7.837,7.837-7.837
		c4.328,0,7.837,3.509,7.837,7.837v87.375C145.923,252.813,142.414,256.322,138.086,256.322z"/>
</g>
<g>
</g>
<g>
</g>
<g>
</g>
<g>
</g>
<g>
</g>
<g>
</g>
<g>
</g>
<g>
</g>
<g>
</g>
<g>
</g>
<g>
</g>
<g>
</g>
<g>
</g>
<g>
</g>
<g>
</g>
</svg>
