<?xml version="1.0" encoding="iso-8859-1"?>
<!-- Generator: Adobe Illustrator 19.0.0, SVG Export Plug-In . SVG Version: 6.00 Build 0)  -->
<svg version="1.1" id="Capa_1" xmlns="http://www.w3.org/2000/svg" xmlns:xlink="http://www.w3.org/1999/xlink" x="0px" y="0px"
	 viewBox="0 0 511.212 511.212" style="enable-background:new 0 0 511.212 511.212;" xml:space="preserve">
<path style="fill:#F3F3F3;" d="M510.522,479.206l-54.4-251.733c-2.133-10.667-18.133-19.2-36.267-19.2h-329.6
	c-18.133,0-34.133,8.533-36.267,19.2L0.656,479.206c-4.267,17.067,12.8,32,36.267,32h438.4
	C498.789,511.206,514.789,496.273,510.522,479.206z"/>
<polygon style="fill:#FFD15D;" points="418.789,230.673 92.389,230.673 50.789,472.806 460.389,472.806 "/>
<g>
	<path style="fill:#435B6C;" d="M148.922,386.406c1.067-2.133,2.133-4.267,4.267-7.467l-11.733-2.133
		c-1.067,3.2-3.2,5.333-4.267,7.467h-1.067c-12.8,1.067-22.4,8.533-22.4,17.067s10.667,14.933,23.467,13.867
		c12.8-1.067,22.4-8.533,22.4-18.133C158.522,392.806,154.256,388.539,148.922,386.406z"/>
	<path style="fill:#435B6C;" d="M162.789,343.739l10.667,4.267c-2.133,2.133-4.267,4.267-6.4,7.467l-10.667-3.2
		C158.522,348.006,160.656,345.873,162.789,343.739z"/>
	<path style="fill:#435B6C;" d="M149.989,359.739l11.733,3.2c-2.133,3.2-3.2,5.333-5.333,8.533l-11.733-3.2
		C146.789,365.073,148.922,361.873,149.989,359.739z"/>
	<path style="fill:#435B6C;" d="M183.056,329.873l5.333,7.467h-1.067c-2.133,1.067-4.267,2.133-6.4,4.267l-9.6-5.333
		c3.2-2.133,6.4-4.267,9.6-5.333C181.989,329.873,183.056,329.873,183.056,329.873z"/>
	<path style="fill:#435B6C;" d="M274.789,321.339l9.6,4.267c-2.133,2.133-6.4,4.267-9.6,6.4l-7.467-6.4
		C270.522,325.606,272.656,323.473,274.789,321.339z"/>
	<path style="fill:#435B6C;" d="M199.056,327.739c4.267,0,9.6,1.067,12.8,1.067l-3.2,7.467c-5.333-1.067-8.533-1.067-11.733-1.067
		L199.056,327.739z"/>
	<path style="fill:#435B6C;" d="M298.256,293.606l8.533,5.333c-1.067,0-1.067,1.067-2.133,1.067c-2.133,1.067-3.2,3.2-4.267,4.267
		l-10.667-4.267c1.067-1.067,3.2-3.2,5.333-4.267C296.122,295.739,297.189,294.673,298.256,293.606z"/>
	<path style="fill:#435B6C;" d="M257.722,329.873l4.267,7.467c-4.267,1.067-8.533,2.133-13.867,2.133l-2.133-8.533l0,0
		C251.322,332.006,254.522,330.939,257.722,329.873z"/>
	<path style="fill:#435B6C;" d="M383.589,281.873c-2.133-6.4-12.8-11.733-23.467-10.667c-9.6,1.067-16,5.333-17.067,10.667
		c-3.2,0-7.467,1.067-10.667,2.133l3.2,7.467c3.2-1.067,6.4-1.067,9.6-1.067c4.267,5.333,12.8,8.533,21.333,7.467
		C378.256,295.739,384.656,289.339,383.589,281.873z"/>
	<path style="fill:#435B6C;" d="M224.656,330.939c4.267,1.067,7.467,1.067,11.733,1.067l-2.133,8.533
		c-4.267,0-8.533-1.067-12.8-1.067L224.656,330.939z"/>
	<path style="fill:#435B6C;" d="M319.589,285.073l5.333,6.4c-3.2,1.067-6.4,2.133-9.6,3.2l-6.4-6.4
		C312.122,287.206,315.322,286.139,319.589,285.073z"/>
	<path style="fill:#435B6C;" d="M284.389,308.539l11.733,3.2c-1.067,1.067-1.067,2.133-2.133,3.2
		c-1.067,1.067-1.067,2.133-2.133,4.267l-11.733-3.2c1.067-1.067,1.067-2.133,2.133-3.2
		C282.256,310.673,283.322,309.606,284.389,308.539z"/>
</g>
<path style="fill:#F3705B;" d="M354.789,40.806c-54.4-54.4-144-54.4-198.4,0s-54.4,144,0,198.4l99.2,99.2l99.2-99.2
	C409.189,183.739,409.189,95.206,354.789,40.806z"/>
<path style="fill:#FFFFFF;" d="M255.589,237.073c-53.333,0-97.067-43.733-97.067-97.067c0-54.4,43.733-98.133,97.067-98.133
	s97.067,43.733,97.067,97.067C352.656,193.339,308.922,237.073,255.589,237.073z"/>
<polygon style="fill:#FFD15D;" points="257.722,214.673 235.322,160.273 179.856,137.873 305.722,88.806 "/>
<g>
</g>
<g>
</g>
<g>
</g>
<g>
</g>
<g>
</g>
<g>
</g>
<g>
</g>
<g>
</g>
<g>
</g>
<g>
</g>
<g>
</g>
<g>
</g>
<g>
</g>
<g>
</g>
<g>
</g>
</svg>
